Coordinates
version=1
nRows=18
nColumns=19
inDegrees=yes

Units are S.I. units (second, meters, Newtons, ...)
If the header above contains a line with 'inDegrees', this indicates whether rotational values are in degrees (yes) or radians (no).

endheader
time	pelvis_tilt	pelvis_list	pelvis_rotation	pelvis_tx	pelvis_ty	pelvis_tz	hip_flexion_r	hip_adduction_r	hip_rotation_r	knee_angle_r	knee_angle_r_beta	ankle_angle_r	hip_flexion_l	hip_adduction_l	hip_rotation_l	knee_angle_l	knee_angle_l_beta	ankle_angle_l
     42.50000000	     -3.76179736	     -4.05265129	      8.63316003	      1.03168627	      0.95294956	     -0.45937391	     11.47214276	      5.86904283	     -9.12006237	     13.05509536	      0.22785440	      7.82028132	     37.24218966	     -5.10806203	      3.40746099	     67.21785710	      1.17317292	    -10.54600923
     42.51000000	     -3.91349539	     -4.03456447	      8.71786259	      1.03058984	      0.95336077	     -0.45903643	     11.10376480	      5.91574669	     -9.36897832	     12.83998697	      0.22410005	      8.05360049	     37.91451575	     -4.94716752	      2.99565385	     65.74884898	      1.14753389	     -9.47666543
     42.52000000	     -4.06148027	     -4.04429416	      8.91198811	      1.02942913	      0.95364810	     -0.45856048	     10.71615730	      6.00126994	     -9.65685349	     12.57232592	      0.21942848	      8.24992360	     38.55061357	     -4.85528532	      2.50532622	     64.12549160	      1.11920096	     -8.27725156
     42.53000000	     -4.20688780	     -4.06338856	      9.11855991	      1.02834120	      0.95392476	     -0.45817416	     10.28159906	      6.09259957	     -9.87239074	     12.24369096	      0.21369272	      8.17697198	     39.07408048	     -4.80769802	      1.94410791	     62.32277858	      1.08773769	     -7.16038844
     42.54000000	     -4.36551936	     -4.07858721	      9.23418134	      1.02718813	      0.95412839	     -0.45782365	      9.91372966	      6.19977845	     -9.67910306	     12.03880965	      0.21011687	      8.74711954	     39.44738755	     -4.78171326	      1.40513886	     60.15377561	      1.04988144	     -6.16999787
     42.55000000	     -4.53072446	     -4.12348590	      9.46139690	      1.02601401	      0.95419812	     -0.45755597	      9.52386693	      6.30020298	    -10.08786736	     11.71783672	      0.20451483	      8.63726109	     39.77927421	     -4.72416117	      0.94325122	     57.84716408	      1.00962348	     -5.13152027
     42.56000000	     -4.68688525	     -4.16765893	      9.71973696	      1.02477700	      0.95423558	     -0.45741255	      9.13429963	      6.39765460	    -10.33560046	     11.42891295	      0.19947216	      8.72933387	     40.00492221	     -4.65693875	      0.41946024	     55.40406531	      0.96698336	     -4.24641364
     42.57000000	     -4.83911547	     -4.21892563	      9.99364651	      1.02354587	      0.95418679	     -0.45737988	      8.76717964	      6.49151462	    -10.59513183	     11.19330002	      0.19535994	      8.91075439	     40.11241856	     -4.53933442	      0.01470963	     52.76608862	      0.92094198	     -3.35000264
     42.58000000	     -5.01167336	     -4.26124321	     10.34017351	      1.02227892	      0.95393655	     -0.45753517	      8.42462517	      6.55471388	    -10.94978515	     10.96864363	      0.19143895	      9.18260887	     40.24832490	     -4.34678903	     -0.32721880	     50.10275194	      0.87445799	     -2.77544660
     42.59000000	     -5.15990766	     -4.32062692	     10.64682545	      1.02105335	      0.95364941	     -0.45766318	      8.08934914	      6.64726490	    -11.28619123	     10.79730572	      0.18844854	      9.34683771	     40.26002366	     -4.19761439	     -0.68655928	     47.29114879	      0.82538625	     -2.32543725
     42.60000000	     -5.31201407	     -4.37040997	     10.95692302	      1.01989770	      0.95331898	     -0.45794819	      7.78455883	      6.71417115	    -11.60270175	     10.67696515	      0.18634820	      9.52161283	     40.16792872	     -3.94742681	     -0.77868283	     44.34916303	      0.77403892	     -2.19980873
     42.61000000	     -5.47422620	     -4.37859156	     11.22244517	      1.01867354	      0.95295787	     -0.45854670	      7.52848310	      6.70815916	    -11.83796664	     10.66333740	      0.18611035	      9.81373289	     40.01833563	     -3.67379718	     -1.05771792	     41.34558881	      0.72161666	     -2.11593266
     42.62000000	     -5.62916951	     -4.37963876	     11.50033304	      1.01757557	      0.95261593	     -0.45916848	      7.29327142	      6.70192216	    -12.06418281	     10.72046966	      0.18710749	     10.16511836	     39.73385646	     -3.40689672	     -1.46162766	     38.16761084	      0.66615048	     -2.17845252
     42.63000000	     -5.78010328	     -4.40068290	     11.70632093	      1.01637322	      0.95218099	     -0.45971162	      7.12954799	      6.71570408	    -12.18029404	     10.87804465	      0.18985770	     10.70072916	     39.39576502	     -3.18451712	     -1.95639610	     34.94547664	      0.60991363	     -2.33403810
     42.64000000	     -5.95056034	     -4.37971820	     11.85758583	      1.01517890	      0.95180060	     -0.46032738	      6.99565348	      6.67705473	    -12.31940397	     11.11468714	      0.19398789	     11.14029603	     38.94329435	     -2.87437879	     -2.31031308	     31.60053197	      0.55153333	     -2.71998381
     42.65000000	     -6.10185029	     -4.36984710	     11.99303435	      1.01409456	      0.95139174	     -0.46095001	      6.89597481	      6.64716422	    -12.37190904	     11.45712721	      0.19996459	     11.59345748	     38.39369949	     -2.52976347	     -2.46811476	     28.20033820	      0.49218875	     -3.12857725
     42.66000000	     -6.23419058	     -4.32134902	     11.99651447	      1.01318580	      0.95109689	     -0.46158369	      6.74559293	      6.58940985	    -12.39180013	     11.76273301	      0.20529842	     12.05822846	     37.69628520	     -2.19842559	     -2.65615816	     24.78081322	      0.43250678	     -3.48862410
     42.67000000	     -6.37754670	     -4.28273368	     11.98983977	      1.01219377	      0.95064896	     -0.46233219	      6.68146639	      6.50051195	    -12.45407523	     12.19965244	      0.21292410	     12.48190638	     37.01006775	     -1.79768493	     -2.45748280	     21.44291609	      0.37424949	     -3.71582256
